<?xml version="1.0" encoding="UTF-8"?>
<svg width="64px" height="64px" viewBox="0 0 64 64" version="1.1" xmlns="http://www.w3.org/2000/svg" xmlns:xlink="http://www.w3.org/1999/xlink">
    <!-- Generator: Sketch 62 (91390) - https://sketch.com -->
    <title>saraly-plus-logo</title>
    <desc>Created with Sketch.</desc>
    <g id="saraly-plus-logo" stroke="none" stroke-width="1" fill="none" fill-rule="evenodd">
        <path d="M9.11695739,-0.00052276496 C15.4681566,-13.1662584 31.4351775,-19.7073984 51.8234528,-10.6299534 C61.9528449,-6.1200575 70.7648744,0.64060807 76.5800622,6.69750422 L76.5800622,6.69750422 L66.4990267,17.6566452 L64.454645,13.751503 C64.3062245,13.470507 64.1546831,13.1910814 63.9999384,12.9133117 L64,1.7283952e-12 L52.0126812,-0.000924944728 C57.3741021,3.43011542 61.2082949,7.90225955 63.9999384,12.9133117 L64,64 L54.9335293,63.9996049 C47.8877136,77.2566677 30.939196,83.3178702 9.38198572,73.7199818 C-0.0896535857,69.5029363 -8.98907401,62.2304789 -14.9646331,55.4716704 L-14.9646331,55.4716704 L-4.81061714,44.70265 C-3.26693758,48.1283384 -1.68226332,51.0490321 -0.00046996332,53.5574929 L-2.61479727e-12,64 L10.973213,63.9995029 C6.71371364,61.5762843 3.18266572,58.3052648 -0.00046996332,53.5574929 L-2.61479727e-12,1.7283952e-12 Z M47.0225635,-2.67927907 C38.6648016,-6.40039444 31.5561194,-4.76105557 28.3433747,-0.000460602638 L9.11695739,-0.00052276496 C8.99337703,0.255653479 8.87343727,0.514337834 8.75717639,0.775464044 C2.7244585,14.3251703 9.25318359,24.7980719 23.6028895,37.1768223 C35.5414543,47.5362978 39.8654264,53.4021448 36.5269321,60.900526 C36.0233988,62.0314801 35.3609213,63.0764981 34.5445632,63.9997966 L10.973213,63.9995029 C11.9766858,64.5703761 13.0205878,65.0941963 14.1098945,65.5791868 C23.8289046,69.9063689 30.8029712,68.231526 34.5445632,63.9997966 L54.9335293,63.9996049 C55.2400858,63.4228031 55.5278962,62.8323793 55.7965244,62.2290305 C62.0049525,48.2846726 56.1781398,37.6513997 39.2857424,23.1948043 C28.8230543,14.122942 24.3819421,8.52019604 27.4861561,1.54801711 C27.729664,1.00108951 28.0163341,0.48414296 28.3433747,-0.000460602638 L52.0126812,-0.000924944728 C50.4781993,-0.98291634 48.8186145,-1.87962567 47.0225635,-2.67927907 Z" id="Combined-Shape" fill="#A22F2F"></path>
    </g>
</svg>